HIERARCHY
ROOT Hips
{
	OFFSET 0.00 0.00 0.00
	CHANNELS 6 Xposition Yposition Zposition Xrotation Yrotation Zrotation
	JOINT LeftUpLeg
	{
		OFFSET 3.34807 0.00000 0.00000
		CHANNELS 3 Xrotation Yrotation Zrotation
		JOINT LeftLeg
		{
			OFFSET 0.00000 -16.98552 0.00000
			CHANNELS 3 Xrotation Yrotation Zrotation
			JOINT LeftFoot
			{
				OFFSET 0.00000 -16.83686 0.00000
				CHANNELS 3 Xrotation Yrotation Zrotation
				JOINT LeftToeBase
				{
					OFFSET 0.00000 -1.59599 5.95633
					CHANNELS 3 Xrotation Yrotation Zrotation
					End Site
					{
						OFFSET 0.00000 0.00000 2.95275
					}
				}
			}
		}
	}
	JOINT RightUpLeg
	{
		OFFSET -3.34807 0.00000 0.00000
		CHANNELS 3 Xrotation Yrotation Zrotation
		JOINT RightLeg
		{
			OFFSET 0.00000 -16.98552 0.00000
			CHANNELS 3 Xrotation Yrotation Zrotation
			JOINT RightFoot
			{
				OFFSET 0.00000 -16.83686 0.00000
				CHANNELS 3 Xrotation Yrotation Zrotation
				JOINT RightToeBase
				{
					OFFSET 0.00000 -1.59599 5.95633
					CHANNELS 3 Xrotation Yrotation Zrotation
					End Site
					{
						OFFSET 0.00000 0.00000 2.95275
					}
				}
			}
		}
	}
	JOINT Spine
	{
		OFFSET 0.00000 0.03937 0.00000
		CHANNELS 3 Xrotation Yrotation Zrotation
		JOINT Spine1
		{
			OFFSET 0.00000 7.93124 0.00000
			CHANNELS 3 Xrotation Yrotation Zrotation
			JOINT Neck
			{
				OFFSET 0.00000 8.48368 0.00000
				CHANNELS 3 Xrotation Yrotation Zrotation
				JOINT Head
				{
					OFFSET 0.00000 6.65077 0.00000
					CHANNELS 3 Xrotation Yrotation Zrotation
					End Site
					{
						OFFSET 0.00000 4.52755 0.00000
					}
				}
			}
			JOINT LeftShoulder
			{
				OFFSET 0.00000 8.48368 0.00000
				CHANNELS 3 Xrotation Yrotation Zrotation
				JOINT LeftArm
				{
					OFFSET 7.74502 -0.00003 0.00000
					CHANNELS 3 Xrotation Yrotation Zrotation
					JOINT LeftForeArm
					{
						OFFSET 12.49824 -0.00005 0.00000
						CHANNELS 3 Xrotation Yrotation Zrotation
						JOINT LeftHand
						{
							OFFSET 9.88337 -0.00004 0.00000
							CHANNELS 3 Xrotation Yrotation Zrotation
							JOINT LeftHandThumb
							{
								OFFSET 0.00000 0.00000 0.00000
								CHANNELS 3 Xrotation Yrotation Zrotation
								End Site
								{
									OFFSET 0.00000 0.00000 3.93700
								}
							}
							JOINT L_Wrist_End
							{
								OFFSET 3.93700 -0.00001 0.00000
								CHANNELS 3 Xrotation Yrotation Zrotation
							}
						}
					}
				}
			}
			JOINT RightShoulder
			{
				OFFSET 0.00000 8.48368 0.00000
				CHANNELS 3 Xrotation Yrotation Zrotation
				JOINT RightArm
				{
					OFFSET -7.74502 -0.00003 0.00000
					CHANNELS 3 Xrotation Yrotation Zrotation
					JOINT RightForeArm
					{
						OFFSET -12.49824 -0.00005 0.00000
						CHANNELS 3 Xrotation Yrotation Zrotation
						JOINT RightHand
						{
							OFFSET -9.88337 -0.00004 0.00000
							CHANNELS 3 Xrotation Yrotation Zrotation
							JOINT RightHandThumb
							{
								OFFSET 0.00000 0.00000 0.00000
								CHANNELS 3 Xrotation Yrotation Zrotation
								End Site
								{
									OFFSET 0.00000 0.00000 3.93700
								}
							}
							JOINT R_Wrist_End
							{
								OFFSET -5.39369 -0.00002 0.00000
								CHANNELS 3 Xrotation Yrotation Zrotation
							}
						}
					}
				}
			}
		}
	}
}
MOTION
Frames: 17
Frame Time: 0.066664
 6.6876 33.8726 -6.8657 26.1718 -1.8573 -12.0103 -53.0901 3.3019 9.5096 41.9941 -0.0000 0.0000 -21.4815 1.9552 -9.4321 12.1261 -0.0000 0.0000 -65.8895 -11.6388 -7.0171 76.2167 -0.0000 0.0000 10.3583 -10.3090 30.0318 -2.0699 0.0000 -0.0000 1.8895 -0.1777 -2.8466 31.8210 -5.5400 -3.9365 -9.1268 2.2216 0.9290 17.9123 -12.7447 4.5255 -8.9748 19.4979 29.8632 11.4526 -49.0425 -72.3124 -0.0004 -62.2964 -0.0002 4.5443 -24.9936 18.2500 -0.0000 -0.0000 0.0000 -0.0000 -0.0000 0.0000 14.3572 -13.8716 -17.8966 -31.4917 32.4687 95.7249 -0.0002 42.3953 0.0001 69.1496 -73.2548 -117.6517 -0.0000 0.0000 -0.0000 -0.0000 0.0000 -0.0000
 6.8805 34.4628 -6.3611 23.7632 -3.7348 -12.4595 -47.3660 3.2337 10.4170 37.1599 -0.0000 0.0000 -20.2402 3.4332 -7.5062 11.2271 0.0000 0.0000 -61.4316 -13.0883 -5.5672 73.1159 -0.0000 0.0000 11.0094 -10.3455 30.1707 -1.1911 -0.0000 0.0000 2.0546 -0.3976 -2.8565 30.8640 -5.2152 -3.3388 -9.1471 3.2198 1.1545 17.4711 -11.6373 4.2506 -8.9830 20.0275 29.8150 12.0965 -46.2923 -72.6680 -0.0004 -63.4509 -0.0003 2.3481 -24.5934 17.3978 -0.0000 0.0000 -0.0000 -0.0000 0.0000 -0.0000 14.4717 -14.1621 -17.5682 -30.7441 32.0822 95.5720 -0.0002 41.6695 0.0001 68.9992 -73.5080 -117.5582 -0.0000 0.0000 -0.0000 -0.0000 0.0000 -0.0000
 7.0793 34.8994 -5.7268 20.9621 -5.7830 -12.5693 -41.3648 3.7607 11.1237 33.0462 -0.0000 0.0000 -19.6969 5.1411 -6.5393 11.0615 -0.0000 0.0000 -56.1084 -14.3685 -4.1301 69.4147 -0.0000 0.0000 11.3907 -10.3830 29.9148 -0.9562 0.0000 0.0000 1.7380 -0.3897 -3.0190 30.2143 -4.9421 -3.0545 -8.7787 4.2541 1.4895 17.1107 -10.8720 3.8198 -8.6498 20.2323 29.6267 12.0761 -44.5134 -73.0309 -0.0004 -62.9200 -0.0003 -0.2087 -25.5279 17.4344 -0.0000 0.0000 -0.0000 -0.0000 0.0000 -0.0000 15.1869 -14.3146 -16.8463 -30.7106 30.9607 95.2134 -0.0002 39.7625 0.0001 70.3123 -74.0122 -117.6147 -0.0000 0.0000 -0.0000 -0.0000 0.0000 -0.0000
 7.2979 35.2117 -5.0568 18.5289 -6.8091 -12.0525 -35.7725 6.1184 11.0143 28.7737 -0.0000 0.0000 -19.0410 5.0182 -6.6043 11.0115 -0.0000 0.0000 -51.0312 -15.9129 -4.1120 65.8028 -0.0000 0.0000 11.6945 -11.0455 29.5932 -0.6659 0.0000 0.0000 1.7162 -0.6940 -3.2427 29.2469 -5.2076 -3.0170 -8.9096 4.9193 1.8516 17.6275 -10.5639 3.3898 -8.7285 20.1318 29.5236 11.3556 -43.5782 -73.9377 -0.0004 -60.9938 -0.0002 -1.7200 -26.3500 17.9443 -0.0000 -0.0000 0.0000 -0.0000 -0.0000 0.0000 17.4645 -15.2609 -15.5732 -32.1497 30.7178 95.0132 -0.0002 38.7145 0.0001 69.3413 -74.3594 -118.1473 -0.0000 0.0000 -0.0000 -0.0000 0.0000 -0.0000
 7.5337 35.3890 -4.4146 16.5492 -7.4809 -11.5326 -31.0731 7.6300 10.2771 25.6026 -0.0000 0.0000 -18.8455 5.3550 -6.5438 10.9212 -0.0000 0.0000 -46.6813 -15.8715 -3.8793 63.4343 -0.0000 0.0000 13.0779 -11.6210 30.1559 -0.4748 -0.0000 -0.0000 1.5158 -0.9229 -3.2698 28.6056 -5.4205 -2.9862 -8.7055 5.4055 1.8529 17.5226 -10.2023 2.9096 -8.7067 19.9755 29.2865 9.3619 -41.9945 -75.6971 -0.0003 -58.9403 -0.0002 -6.1030 -28.8184 20.9172 -0.0000 -0.0000 0.0000 -0.0000 -0.0000 0.0000 18.0986 -15.5194 -15.2462 -32.1486 30.7127 95.2539 -0.0002 37.8447 0.0001 69.5154 -74.0236 -117.8249 -0.0000 0.0000 -0.0000 -0.0000 0.0000 -0.0000
 7.7660 35.3623 -3.7740 14.6532 -7.9536 -11.1359 -27.8192 8.2249 9.4666 25.4111 -0.0000 0.0000 -20.0068 6.0051 -5.9987 11.2318 -0.0000 0.0000 -42.9060 -14.8132 -3.5994 62.8272 -0.0000 0.0000 15.2729 -11.1891 30.8294 0.7444 -0.0000 0.0000 1.2373 -0.9137 -3.2942 28.3405 -5.2762 -2.8123 -8.5871 5.6984 1.8936 18.0806 -9.9792 2.6272 -9.1069 19.6846 28.9989 6.5780 -40.4811 -77.6005 -0.0003 -56.5605 -0.0002 -6.7368 -32.3519 24.4082 -0.0000 -0.0000 0.0000 -0.0000 -0.0000 0.0000 18.4862 -15.5488 -15.0177 -32.2836 30.7314 95.6721 -0.0002 36.0131 0.0000 69.5498 -73.7487 -118.1695 -0.0000 0.0000 -0.0000 -0.0000 0.0000 -0.0000
 8.0456 35.0207 -3.0853 12.8416 -7.6522 -10.2628 -26.1896 7.4510 7.7282 29.1273 -0.0000 0.0000 -23.1317 7.1987 -4.9430 10.9113 -0.0000 0.0000 -39.9257 -13.9309 -4.6272 64.1081 -0.0000 0.0000 13.5683 -11.4997 30.6354 -3.9325 -0.0000 -0.0000 1.0750 -0.9655 -3.2037 27.7758 -5.4470 -3.0051 -8.5835 5.6953 1.9905 18.5976 -9.9578 2.6031 -9.7347 19.4121 28.0878 3.2765 -38.9730 -78.2007 -0.0003 -53.9801 -0.0001 -7.0598 -33.4994 24.7513 -0.0000 -0.0000 0.0000 -0.0000 -0.0000 0.0000 18.5317 -15.6011 -14.5136 -32.0902 30.8274 95.9031 -0.0001 33.5466 0.0000 70.8043 -73.5942 -118.0719 -0.0000 0.0000 -0.0000 -0.0000 0.0000 -0.0000
 8.3791 34.2202 -2.2493 10.0739 -6.9491 -9.4064 -25.6511 7.0144 5.9628 37.2891 -0.0000 0.0000 -28.0683 7.9992 -3.2802 10.2929 -0.0000 0.0000 -36.7717 -12.3699 -6.2159 67.0366 -0.0000 0.0000 9.8127 -11.6836 30.3916 -9.0494 -0.0000 -0.0000 1.3539 -0.9336 -2.8716 27.1734 -5.5985 -3.3846 -8.7378 5.3076 2.2833 18.1377 -10.4454 2.6898 -9.6647 18.5232 26.3610 0.7470 -38.0858 -76.7479 -0.0003 -52.5116 -0.0001 -5.5269 -33.2247 25.2309 -0.0000 0.0000 -0.0000 -0.0000 0.0000 -0.0000 18.8525 -15.5003 -13.8056 -31.4713 30.9451 95.2375 -0.0001 30.9835 0.0000 71.2094 -73.0843 -117.8945 -0.0000 0.0000 -0.0000 -0.0000 0.0000 -0.0000
 8.7275 33.3142 -1.1894 7.0044 -6.2991 -8.3716 -23.8523 9.6346 4.8027 43.8749 -0.0000 0.0000 -32.8718 6.4951 -3.2532 9.0673 -0.0000 -0.0000 -33.2924 -11.2408 -8.6696 70.4522 -0.0000 0.0000 5.9166 -11.3254 31.4466 -12.8887 0.0000 -0.0000 1.2297 -1.3505 -3.4362 26.5615 -6.1509 -3.5501 -9.2873 5.0982 3.3194 17.8170 -11.4379 3.0520 -7.0436 16.8438 27.3808 -0.9593 -34.5667 -78.2424 -0.0003 -54.1386 -0.0001 -1.4530 -32.1666 29.1920 -0.0000 -0.0000 0.0000 -0.0000 -0.0000 0.0000 19.1521 -15.0284 -13.1045 -31.4940 33.8906 93.3997 -0.0001 27.7841 0.0000 70.5873 -72.7210 -118.9711 -0.0000 0.0000 -0.0000 -0.0000 0.0000 -0.0000
 9.2774 33.5232 0.1173 5.1828 -6.4897 -8.1929 -18.6717 14.0751 4.7752 41.2125 -0.0000 0.0000 -31.5952 2.9566 -5.9368 6.5738 0.0000 0.0000 -28.7755 -13.2749 -11.1111 67.5885 -0.0000 0.0000 6.0119 -10.1000 30.6925 -12.9570 0.0000 -0.0000 1.8976 -1.8383 -3.6359 23.2103 -5.5962 -2.0321 -9.6702 5.2656 3.0968 21.6362 -12.3657 1.9065 -6.4813 15.6928 31.3447 3.3512 -42.6715 -79.8791 -0.0003 -57.7231 -0.0002 2.0126 -28.8381 28.0972 -0.0000 0.0000 -0.0000 -0.0000 0.0000 -0.0000 19.6823 -14.6929 -14.9057 -29.0800 35.6553 91.4839 -0.0001 27.8064 0.0000 70.6938 -73.8739 -120.0759 -0.0000 0.0000 -0.0000 -0.0000 0.0000 -0.0000
 9.6381 34.9507 0.3915 10.1146 -4.4718 -9.1652 -27.8128 14.9874 8.0599 46.8284 -0.0000 0.0000 -15.7744 -1.8031 -16.4503 -5.4773 0.0000 -0.0000 -30.5960 -18.0950 -10.9470 60.2679 -0.0000 0.0000 13.2695 -11.2889 31.5898 -8.7221 0.0000 0.0000 2.4332 -3.1278 -3.7337 19.8849 -5.4679 0.8400 -10.3914 4.6986 2.8437 22.8803 -13.1702 1.4216 -7.8180 16.0355 33.0153 8.5403 -53.6508 -75.7434 -0.0004 -62.6515 -0.0002 0.2000 -27.1753 22.8364 -0.0000 0.0000 -0.0000 -0.0000 0.0000 -0.0000 19.0490 -14.0521 -15.0228 -28.0694 34.8298 90.7947 -0.0001 28.1413 0.0000 67.5095 -72.8970 -118.2473 -0.0000 0.0000 -0.0000 -0.0000 0.0000 -0.0000
 9.8467 35.6984 -0.4581 20.0927 -0.2942 -10.0342 -47.0138 8.0459 8.7413 50.9715 -0.0000 0.0000 -17.1544 1.5058 -19.5422 -3.4589 -0.0000 0.0000 -41.1938 -19.1806 -10.9516 58.6914 -0.0000 0.0000 18.9505 -13.8632 30.6465 -5.7943 0.0000 -0.0000 2.4437 -3.3021 -3.0950 19.3613 -5.3079 1.5740 -11.4757 0.8307 2.5547 20.1828 -15.1202 3.7533 -9.4012 14.3982 34.0346 12.1057 -58.7530 -67.2744 -0.0006 -71.6915 -0.0005 1.5034 -23.0948 18.6565 -0.0000 -0.0000 0.0000 -0.0000 -0.0000 0.0000 18.8925 -15.6048 -13.8391 -29.1718 30.8413 91.5305 -0.0001 32.5303 0.0000 65.1642 -74.1680 -118.7814 -0.0000 0.0000 -0.0000 -0.0000 0.0000 -0.0000
 10.3144 34.6799 -0.7512 24.9883 -1.0990 -8.7066 -53.4482 4.0495 8.6365 43.6911 -0.0000 0.0000 -7.8389 -4.4199 -18.5469 0.4512 -0.0000 -0.0000 -49.8324 -14.0686 -11.8017 65.4524 -0.0000 0.0000 17.6040 -15.3768 32.1807 -8.2710 0.0000 -0.0000 2.3794 -2.3974 -3.8643 22.2102 -4.7127 0.9681 -12.2882 -0.6703 1.6460 17.9872 -14.6818 5.1197 -9.6535 16.4164 34.2365 13.2112 -56.0448 -64.5079 -0.0013 -80.4932 -0.0011 0.1657 -21.5394 18.0480 -0.0000 0.0000 -0.0000 -0.0000 0.0000 -0.0000 18.6230 -15.7049 -14.5269 -29.4494 29.2170 90.5672 -0.0002 38.1907 0.0001 67.3923 -73.3454 -117.6719 -0.0000 0.0000 -0.0000 -0.0000 0.0000 -0.0000
 10.9975 32.3590 -0.5549 25.3251 -3.8006 -6.3950 -58.0223 9.0289 8.4644 53.7863 -0.0000 0.0000 -24.0351 -4.3749 -10.6599 10.7760 -0.0000 0.0000 -55.4185 -9.0898 -14.5058 76.9702 -0.0000 0.0000 9.2902 -14.6160 30.4504 -7.5819 0.0000 0.0000 3.1697 -1.6980 -4.5604 24.0105 -4.6548 -0.3497 -10.0460 0.9591 1.9964 13.7180 -14.9773 4.0759 -9.2586 18.4703 33.2846 16.3345 -53.4454 -63.7012 -0.0018 -83.2005 -0.0016 0.5200 -21.7580 18.2914 -0.0000 -0.0000 0.0000 -0.0000 -0.0000 0.0000 17.7352 -15.0201 -15.5395 -27.9782 28.7433 88.3561 -0.0002 40.8848 0.0001 67.4724 -72.4423 -117.9019 -0.0000 0.0000 -0.0000 -0.0000 0.0000 -0.0000
 11.5295 31.4551 -0.4965 26.7255 -6.4781 -5.8170 -62.4329 6.4979 7.6582 60.5641 -0.0000 0.0000 -27.2384 -0.7732 -9.4064 8.9891 -0.0000 0.0000 -60.1319 -5.3231 -13.1900 82.8351 -0.0000 0.0000 2.0367 -18.8566 26.3402 -0.9164 0.0000 0.0000 2.5197 -0.4169 -4.3845 27.8443 -3.7252 -0.9694 -10.4409 1.1114 2.0312 13.5938 -14.2077 5.4222 -9.6611 18.3014 31.6520 10.8515 -52.0504 -68.5472 -0.0008 -74.4448 -0.0006 4.3678 -21.3350 18.9712 -0.0000 -0.0000 0.0000 -0.0000 -0.0000 0.0000 16.1149 -13.9164 -15.3900 -30.0981 24.8400 89.1839 -0.0002 37.3600 0.0001 59.2544 -76.0088 -127.4279 -0.0000 0.0000 -0.0000 -0.0000 0.0000 -0.0000
 11.9460 31.7832 -0.4601 28.3828 -9.3627 -5.7924 -63.7814 6.6732 8.9659 59.8153 -0.0000 0.0000 -25.4940 -0.1687 -10.0063 6.8577 0.0000 0.0000 -63.5543 -6.7801 -12.0079 82.4433 -0.0000 0.0000 3.0370 -19.8917 28.3319 -1.5788 -0.0000 0.0000 3.1495 -0.5372 -3.9633 27.7267 -4.1012 -1.4970 -10.8279 1.6100 1.9097 15.1284 -12.8236 6.1911 -10.6504 18.3738 31.6022 6.7106 -50.1077 -73.9454 -0.0005 -65.8693 -0.0003 8.5929 -21.1742 19.2058 -0.0000 -0.0000 0.0000 -0.0000 -0.0000 0.0000 13.7367 -12.8516 -16.6862 -30.8347 23.9133 91.4889 -0.0002 38.5891 0.0001 73.1672 -74.9472 -118.8755 -0.0000 0.0000 -0.0000 -0.0000 0.0000 -0.0000
 12.2302 32.6458 -0.2369 28.8280 -11.9499 -6.0481 -60.9414 7.1408 10.1529 54.0923 -0.0000 0.0000 -23.9669 0.5919 -10.1483 7.3008 -0.0000 0.0000 -63.5085 -10.5661 -11.6250 78.1511 -0.0000 0.0000 7.7130 -11.7917 29.7250 0.2468 -0.0000 0.0000 2.9798 -0.6694 -3.7564 27.7039 -4.2808 -1.5858 -10.5761 2.5044 2.1530 15.1687 -12.2131 5.8466 -10.7622 17.7319 31.4018 5.9060 -47.2327 -75.1673 -0.0004 -63.0040 -0.0003 5.1307 -23.8150 20.9442 -0.0000 0.0000 -0.0000 -0.0000 0.0000 -0.0000 13.1519 -12.8107 -16.8429 -30.8261 24.9572 92.6527 -0.0002 41.8373 0.0001 70.2414 -73.9423 -118.7995 -0.0000 0.0000 -0.0000 -0.0000 0.0000 -0.0000
